<svg version="1.2" baseProfile="tiny-ps" xmlns="http://www.w3.org/2000/svg" viewBox="0 0 1150 1150" width="512" height="512"><title>logo-sym</title><style>tspan { white-space:pre }.shp0 { fill: #ffffff } .shp1 { fill: #e3b922 } .shp2 { fill: #7dbc45 } .shp3 { fill: #474b52 } </style><path class="shp0" d="M574.5 1127C266.2 1127 17 880.03 17 574.5C17 268.97 266.2 22 574.5 22C882.8 22 1132 268.97 1132 574.5C1132 880.03 882.8 1127 574.5 1127Z" /><path class="shp1" d="M582.82 406.42C677.15 406.42 753.63 482.88 753.63 577.21C753.63 671.53 677.15 748 582.82 748C488.49 748 412.02 671.53 412.02 577.21C412.02 482.88 488.49 406.42 582.82 406.42ZM812.19 406.42C906.53 406.42 983 482.88 983 577.21C983 671.53 906.53 748 812.19 748C717.86 748 641.38 671.53 641.38 577.21C641.38 482.88 717.86 406.42 812.19 406.42ZM582.83 406.42L810.57 406.42L810.57 748L582.83 748L582.83 406.42Z" /><path class="shp2" d="M582.82 406.42C677.15 406.42 753.63 482.88 753.63 577.21C753.63 671.53 677.15 748 582.82 748C488.49 748 412.02 671.53 412.02 577.21C412.02 482.88 488.49 406.42 582.82 406.42ZM812.19 406.42C906.53 406.42 983 482.88 983 577.21C983 671.53 906.53 748 812.19 748C717.86 748 641.38 671.53 641.38 577.21C641.38 482.88 717.86 406.42 812.19 406.42ZM582.83 406.42L810.57 406.42L810.57 748L582.83 748L582.83 406.42Z" /><path fill-rule="evenodd" class="shp3" d="M576.02 295C421.37 295.01 296.01 420.37 296.01 575C296.01 729.63 421.37 854.99 576.02 855L576.02 995C344.05 994.99 156 806.95 156 575C156 343.04 344.05 155.01 576.02 155L857.07 155L857.07 295L857.05 295L857.05 995L717.04 995L717.04 295L576.02 295ZM576.03 855L647.04 995L576.03 995L576.03 855Z" /></svg>